<svg width="488" height="766" viewBox="0 0 488 766" fill="none" xmlns="http://www.w3.org/2000/svg">
<g clip-path="url(#clip0_122_130)">
<rect width="488" height="766" fill="#121214"/>
<g opacity="0.2" filter="url(#filter0_f_122_130)">
<ellipse cx="242.5" cy="85.3901" rx="176.5" ry="392.39" fill="#338AF3"/>
</g>
<path d="M116.287 349.973C116.681 349.973 116.979 350.68 117.181 352.093C117.387 353.491 117.49 355.526 117.49 358.198C117.49 360.869 117.387 362.912 117.181 364.326C116.979 365.739 116.681 366.446 116.287 366.446C115.897 366.446 115.599 365.739 115.393 364.326C115.187 362.912 115.084 360.869 115.084 358.198C115.084 355.542 115.187 353.507 115.393 352.093C115.599 350.68 115.897 349.973 116.287 349.973ZM115.476 358.198C115.476 360.093 115.517 361.576 115.598 362.648L116.823 352.326C116.694 351.596 116.515 351.231 116.287 351.231C116.033 351.231 115.835 351.806 115.691 352.956C115.548 354.089 115.476 355.837 115.476 358.198ZM116.287 365.164C116.545 365.164 116.745 364.597 116.889 363.463C117.032 362.314 117.104 360.559 117.104 358.198C117.104 356.194 117.058 354.641 116.966 353.538L115.741 363.953C115.873 364.76 116.056 365.164 116.287 365.164Z" fill="url(#paint0_linear_122_130)" fill-opacity="0.6"/>
<path d="M116.618 391.606H117.43V392.84H115.327V391.606H116.265V378.511L115.371 380.771L115.217 379.723L116.32 376.834H116.618V391.606Z" fill="url(#paint1_linear_122_130)" fill-opacity="0.6"/>
<path d="M116.287 403.229C116.681 403.229 116.979 403.935 117.181 405.349C117.387 406.747 117.49 408.782 117.49 411.453C117.49 414.125 117.387 416.167 117.181 417.581C116.979 418.994 116.681 419.701 116.287 419.701C115.897 419.701 115.599 418.994 115.393 417.581C115.187 416.167 115.084 414.125 115.084 411.453C115.084 408.797 115.187 406.762 115.393 405.349C115.599 403.935 115.897 403.229 116.287 403.229ZM115.476 411.453C115.476 413.348 115.517 414.832 115.598 415.903L116.823 405.582C116.694 404.852 116.515 404.487 116.287 404.487C116.033 404.487 115.835 405.061 115.691 406.211C115.548 407.345 115.476 409.092 115.476 411.453ZM116.287 418.42C116.545 418.42 116.745 417.853 116.889 416.719C117.032 415.569 117.104 413.814 117.104 411.453C117.104 409.449 117.058 407.896 116.966 406.793L115.741 417.208C115.873 418.016 116.056 418.42 116.287 418.42Z" fill="url(#paint2_linear_122_130)" fill-opacity="0.6"/>
<path d="M116.618 444.861H117.43V446.096H115.327V444.861H116.265V431.767L115.371 434.027L115.217 432.978L116.32 430.089H116.618V444.861Z" fill="url(#paint3_linear_122_130)" fill-opacity="0.6"/>
<path d="M116.618 471.489H117.43V472.723H115.327V471.489H116.265V458.394L115.371 460.654L115.217 459.606L116.32 456.717H116.618V471.489Z" fill="url(#paint4_linear_122_130)" fill-opacity="0.6"/>
<path d="M116.287 483.112C116.681 483.112 116.979 483.818 117.181 485.232C117.387 486.63 117.49 488.664 117.49 491.336C117.49 494.008 117.387 496.05 117.181 497.464C116.979 498.877 116.681 499.584 116.287 499.584C115.897 499.584 115.599 498.877 115.393 497.464C115.187 496.05 115.084 494.008 115.084 491.336C115.084 488.68 115.187 486.645 115.393 485.232C115.599 483.818 115.897 483.112 116.287 483.112ZM115.476 491.336C115.476 493.231 115.517 494.715 115.598 495.786L116.823 485.465C116.694 484.735 116.515 484.37 116.287 484.37C116.033 484.37 115.835 484.944 115.691 486.094C115.548 487.228 115.476 488.975 115.476 491.336ZM116.287 498.303C116.545 498.303 116.745 497.736 116.889 496.602C117.032 495.452 117.104 493.697 117.104 491.336C117.104 489.332 117.058 487.779 116.966 486.676L115.741 497.091C115.873 497.899 116.056 498.303 116.287 498.303Z" fill="url(#paint5_linear_122_130)" fill-opacity="0.6"/>
<path d="M116.618 524.744H117.43V525.979H115.327V524.744H116.265V511.65L115.371 513.91L115.217 512.861L116.32 509.972H116.618V524.744Z" fill="url(#paint6_linear_122_130)" fill-opacity="0.6"/>
<path d="M116.287 536.367C116.681 536.367 116.979 537.074 117.181 538.487C117.387 539.885 117.49 541.92 117.49 544.591C117.49 547.263 117.387 549.306 117.181 550.719C116.979 552.133 116.681 552.839 116.287 552.839C115.897 552.839 115.599 552.133 115.393 550.719C115.187 549.306 115.084 547.263 115.084 544.591C115.084 541.935 115.187 539.901 115.393 538.487C115.599 537.074 115.897 536.367 116.287 536.367ZM115.476 544.591C115.476 546.486 115.517 547.97 115.598 549.042L116.823 538.72C116.694 537.99 116.515 537.625 116.287 537.625C116.033 537.625 115.835 538.2 115.691 539.349C115.548 540.483 115.476 542.23 115.476 544.591ZM116.287 551.558C116.545 551.558 116.745 550.991 116.889 549.857C117.032 548.708 117.104 546.952 117.104 544.591C117.104 542.588 117.058 541.034 116.966 539.932L115.741 550.346C115.873 551.154 116.056 551.558 116.287 551.558Z" fill="url(#paint7_linear_122_130)" fill-opacity="0.6"/>
<path d="M116.287 562.994C116.681 562.994 116.979 563.701 117.181 565.115C117.387 566.513 117.49 568.547 117.49 571.219C117.49 573.891 117.387 575.933 117.181 577.347C116.979 578.76 116.681 579.467 116.287 579.467C115.897 579.467 115.599 578.76 115.393 577.347C115.187 575.933 115.084 573.891 115.084 571.219C115.084 568.563 115.187 566.528 115.393 565.115C115.599 563.701 115.897 562.994 116.287 562.994ZM115.476 571.219C115.476 573.114 115.517 574.597 115.598 575.669L116.823 565.348C116.694 564.618 116.515 564.253 116.287 564.253C116.033 564.253 115.835 564.827 115.691 565.977C115.548 567.111 115.476 568.858 115.476 571.219ZM116.287 578.186C116.545 578.186 116.745 577.619 116.889 576.485C117.032 575.335 117.104 573.58 117.104 571.219C117.104 569.215 117.058 567.662 116.966 566.559L115.741 576.974C115.873 577.782 116.056 578.186 116.287 578.186Z" fill="url(#paint8_linear_122_130)" fill-opacity="0.6"/>
<path d="M116.618 604.627H117.43V605.862H115.327V604.627H116.265V591.533L115.371 593.793L115.217 592.744L116.32 589.855H116.618V604.627Z" fill="url(#paint9_linear_122_130)" fill-opacity="0.6"/>
<path d="M116.287 616.25C116.681 616.25 116.979 616.957 117.181 618.37C117.387 619.768 117.49 621.803 117.49 624.474C117.49 627.146 117.387 629.189 117.181 630.602C116.979 632.016 116.681 632.722 116.287 632.722C115.897 632.722 115.599 632.016 115.393 630.602C115.187 629.189 115.084 627.146 115.084 624.474C115.084 621.818 115.187 619.784 115.393 618.37C115.599 616.957 115.897 616.25 116.287 616.25ZM115.476 624.474C115.476 626.369 115.517 627.853 115.598 628.925L116.823 618.603C116.694 617.873 116.515 617.508 116.287 617.508C116.033 617.508 115.835 618.083 115.691 619.232C115.548 620.366 115.476 622.113 115.476 624.474ZM116.287 631.441C116.545 631.441 116.745 630.874 116.889 629.74C117.032 628.591 117.104 626.835 117.104 624.474C117.104 622.471 117.058 620.917 116.966 619.815L115.741 630.229C115.873 631.037 116.056 631.441 116.287 631.441Z" fill="url(#paint10_linear_122_130)" fill-opacity="0.6"/>
<path d="M116.618 657.882H117.43V659.117H115.327V657.882H116.265V644.788L115.371 647.048L115.217 646L116.32 643.11H116.618V657.882Z" fill="url(#paint11_linear_122_130)" fill-opacity="0.6"/>
<path d="M116.618 684.51H117.43V685.745H115.327V684.51H116.265V671.416L115.371 673.676L115.217 672.627L116.32 669.738H116.618V684.51Z" fill="url(#paint12_linear_122_130)" fill-opacity="0.6"/>
<path d="M126.535 403.229C126.929 403.229 127.227 403.935 127.429 405.349C127.635 406.747 127.738 408.782 127.738 411.453C127.738 414.125 127.635 416.167 127.429 417.581C127.227 418.994 126.929 419.701 126.535 419.701C126.145 419.701 125.847 418.994 125.641 417.581C125.435 416.167 125.332 414.125 125.332 411.453C125.332 408.797 125.435 406.762 125.641 405.349C125.847 403.935 126.145 403.229 126.535 403.229ZM125.724 411.453C125.724 413.348 125.764 414.832 125.845 415.903L127.07 405.582C126.942 404.852 126.763 404.487 126.535 404.487C126.281 404.487 126.083 405.061 125.939 406.211C125.796 407.345 125.724 409.092 125.724 411.453ZM126.535 418.42C126.793 418.42 126.993 417.853 127.137 416.719C127.28 415.569 127.352 413.814 127.352 411.453C127.352 409.449 127.306 407.896 127.214 406.793L125.989 417.208C126.121 418.016 126.303 418.42 126.535 418.42Z" fill="url(#paint13_linear_122_130)" fill-opacity="0.6"/>
<path d="M126.866 444.861H127.677V446.096H125.575V444.861H126.513V431.767L125.619 434.027L125.465 432.978L126.568 430.089H126.866V444.861Z" fill="url(#paint14_linear_122_130)" fill-opacity="0.6"/>
<path d="M126.535 456.484C126.929 456.484 127.227 457.191 127.429 458.604C127.635 460.002 127.738 462.037 127.738 464.708C127.738 467.38 127.635 469.423 127.429 470.836C127.227 472.25 126.929 472.956 126.535 472.956C126.145 472.956 125.847 472.25 125.641 470.836C125.435 469.423 125.332 467.38 125.332 464.708C125.332 462.052 125.435 460.018 125.641 458.604C125.847 457.191 126.145 456.484 126.535 456.484ZM125.724 464.708C125.724 466.603 125.764 468.087 125.845 469.159L127.07 458.837C126.942 458.107 126.763 457.742 126.535 457.742C126.281 457.742 126.083 458.317 125.939 459.466C125.796 460.6 125.724 462.347 125.724 464.708ZM126.535 471.675C126.793 471.675 126.993 471.108 127.137 469.974C127.28 468.825 127.352 467.069 127.352 464.708C127.352 462.705 127.306 461.151 127.214 460.049L125.989 470.463C126.121 471.271 126.303 471.675 126.535 471.675Z" fill="url(#paint15_linear_122_130)" fill-opacity="0.6"/>
<path d="M126.535 483.112C126.929 483.112 127.227 483.818 127.429 485.232C127.635 486.63 127.738 488.664 127.738 491.336C127.738 494.008 127.635 496.05 127.429 497.464C127.227 498.877 126.929 499.584 126.535 499.584C126.145 499.584 125.847 498.877 125.641 497.464C125.435 496.05 125.332 494.008 125.332 491.336C125.332 488.68 125.435 486.645 125.641 485.232C125.847 483.818 126.145 483.112 126.535 483.112ZM125.724 491.336C125.724 493.231 125.764 494.715 125.845 495.786L127.07 485.465C126.942 484.735 126.763 484.37 126.535 484.37C126.281 484.37 126.083 484.944 125.939 486.094C125.796 487.228 125.724 488.975 125.724 491.336ZM126.535 498.303C126.793 498.303 126.993 497.736 127.137 496.602C127.28 495.452 127.352 493.697 127.352 491.336C127.352 489.332 127.306 487.779 127.214 486.676L125.989 497.091C126.121 497.899 126.303 498.303 126.535 498.303Z" fill="url(#paint16_linear_122_130)" fill-opacity="0.6"/>
<path d="M126.866 524.744H127.677V525.979H125.575V524.744H126.513V511.65L125.619 513.91L125.465 512.861L126.568 509.972H126.866V524.744Z" fill="url(#paint17_linear_122_130)" fill-opacity="0.6"/>
<path d="M126.535 536.367C126.929 536.367 127.227 537.074 127.429 538.487C127.635 539.885 127.738 541.92 127.738 544.591C127.738 547.263 127.635 549.306 127.429 550.719C127.227 552.133 126.929 552.839 126.535 552.839C126.145 552.839 125.847 552.133 125.641 550.719C125.435 549.306 125.332 547.263 125.332 544.591C125.332 541.935 125.435 539.901 125.641 538.487C125.847 537.074 126.145 536.367 126.535 536.367ZM125.724 544.591C125.724 546.486 125.764 547.97 125.845 549.042L127.07 538.72C126.942 537.99 126.763 537.625 126.535 537.625C126.281 537.625 126.083 538.2 125.939 539.349C125.796 540.483 125.724 542.23 125.724 544.591ZM126.535 551.558C126.793 551.558 126.993 550.991 127.137 549.857C127.28 548.708 127.352 546.952 127.352 544.591C127.352 542.588 127.306 541.034 127.214 539.932L125.989 550.346C126.121 551.154 126.303 551.558 126.535 551.558Z" fill="url(#paint18_linear_122_130)" fill-opacity="0.6"/>
<path d="M126.866 577.999H127.677V579.234H125.575V577.999H126.513V564.905L125.619 567.165L125.465 566.117L126.568 563.227H126.866V577.999Z" fill="url(#paint19_linear_122_130)" fill-opacity="0.6"/>
<path d="M126.535 589.622C126.929 589.622 127.227 590.329 127.429 591.742C127.635 593.14 127.738 595.175 127.738 597.847C127.738 600.518 127.635 602.561 127.429 603.974C127.227 605.388 126.929 606.095 126.535 606.095C126.145 606.095 125.847 605.388 125.641 603.974C125.435 602.561 125.332 600.518 125.332 597.847C125.332 595.191 125.435 593.156 125.641 591.742C125.847 590.329 126.145 589.622 126.535 589.622ZM125.724 597.847C125.724 599.742 125.764 601.225 125.845 602.297L127.07 591.975C126.942 591.245 126.763 590.88 126.535 590.88C126.281 590.88 126.083 591.455 125.939 592.604C125.796 593.738 125.724 595.486 125.724 597.847ZM126.535 604.813C126.793 604.813 126.993 604.246 127.137 603.112C127.28 601.963 127.352 600.208 127.352 597.847C127.352 595.843 127.306 594.29 127.214 593.187L125.989 603.602C126.121 604.409 126.303 604.813 126.535 604.813Z" fill="url(#paint20_linear_122_130)" fill-opacity="0.6"/>
<path d="M126.535 616.25C126.929 616.25 127.227 616.957 127.429 618.37C127.635 619.768 127.738 621.803 127.738 624.474C127.738 627.146 127.635 629.189 127.429 630.602C127.227 632.016 126.929 632.722 126.535 632.722C126.145 632.722 125.847 632.016 125.641 630.602C125.435 629.189 125.332 627.146 125.332 624.474C125.332 621.818 125.435 619.784 125.641 618.37C125.847 616.957 126.145 616.25 126.535 616.25ZM125.724 624.474C125.724 626.369 125.764 627.853 125.845 628.925L127.07 618.603C126.942 617.873 126.763 617.508 126.535 617.508C126.281 617.508 126.083 618.083 125.939 619.232C125.796 620.366 125.724 622.113 125.724 624.474ZM126.535 631.441C126.793 631.441 126.993 630.874 127.137 629.74C127.28 628.591 127.352 626.835 127.352 624.474C127.352 622.471 127.306 620.917 127.214 619.815L125.989 630.229C126.121 631.037 126.303 631.441 126.535 631.441Z" fill="url(#paint21_linear_122_130)" fill-opacity="0.6"/>
<path d="M126.866 657.882H127.677V659.117H125.575V657.882H126.513V644.788L125.619 647.048L125.465 646L126.568 643.11H126.866V657.882Z" fill="url(#paint22_linear_122_130)" fill-opacity="0.6"/>
<path d="M126.535 669.505C126.929 669.505 127.227 670.212 127.429 671.625C127.635 673.023 127.738 675.058 127.738 677.73C127.738 680.401 127.635 682.444 127.429 683.857C127.227 685.271 126.929 685.978 126.535 685.978C126.145 685.978 125.847 685.271 125.641 683.857C125.435 682.444 125.332 680.401 125.332 677.73C125.332 675.074 125.435 673.039 125.641 671.625C125.847 670.212 126.145 669.505 126.535 669.505ZM125.724 677.73C125.724 679.625 125.764 681.108 125.845 682.18L127.07 671.858C126.942 671.128 126.763 670.763 126.535 670.763C126.281 670.763 126.083 671.338 125.939 672.487C125.796 673.621 125.724 675.369 125.724 677.73ZM126.535 684.696C126.793 684.696 126.993 684.129 127.137 682.995C127.28 681.846 127.352 680.091 127.352 677.73C127.352 675.726 127.306 674.173 127.214 673.07L125.989 683.485C126.121 684.292 126.303 684.696 126.535 684.696Z" fill="url(#paint23_linear_122_130)" fill-opacity="0.6"/>
<path d="M126.866 711.137H127.677V712.372H125.575V711.137H126.513V698.043L125.619 700.303L125.465 699.255L126.568 696.366H126.866V711.137Z" fill="url(#paint24_linear_122_130)" fill-opacity="0.6"/>
<path d="M126.866 737.765H127.677V739H125.575V737.765H126.513V724.671L125.619 726.931L125.465 725.883L126.568 722.993H126.866V737.765Z" fill="url(#paint25_linear_122_130)" fill-opacity="0.6"/>
<path d="M111.163 429.856C111.557 429.856 111.855 430.563 112.057 431.976C112.263 433.374 112.366 435.409 112.366 438.081C112.366 440.752 112.263 442.795 112.057 444.208C111.855 445.622 111.557 446.329 111.163 446.329C110.773 446.329 110.475 445.622 110.269 444.208C110.063 442.795 109.96 440.752 109.96 438.081C109.96 435.425 110.063 433.39 110.269 431.976C110.475 430.563 110.773 429.856 111.163 429.856ZM110.352 438.081C110.352 439.976 110.393 441.459 110.474 442.531L111.699 432.209C111.57 431.479 111.391 431.114 111.163 431.114C110.91 431.114 110.711 431.689 110.567 432.838C110.424 433.972 110.352 435.72 110.352 438.081ZM111.163 445.047C111.421 445.047 111.621 444.48 111.765 443.346C111.908 442.197 111.98 440.442 111.98 438.081C111.98 436.077 111.934 434.524 111.842 433.421L110.617 443.836C110.75 444.643 110.932 445.047 111.163 445.047Z" fill="url(#paint26_linear_122_130)" fill-opacity="0.6"/>
<path d="M111.163 456.484C111.557 456.484 111.855 457.191 112.057 458.604C112.263 460.002 112.366 462.037 112.366 464.708C112.366 467.38 112.263 469.423 112.057 470.836C111.855 472.25 111.557 472.956 111.163 472.956C110.773 472.956 110.475 472.25 110.269 470.836C110.063 469.423 109.96 467.38 109.96 464.708C109.96 462.052 110.063 460.018 110.269 458.604C110.475 457.191 110.773 456.484 111.163 456.484ZM110.352 464.708C110.352 466.603 110.393 468.087 110.474 469.159L111.699 458.837C111.57 458.107 111.391 457.742 111.163 457.742C110.91 457.742 110.711 458.317 110.567 459.466C110.424 460.6 110.352 462.347 110.352 464.708ZM111.163 471.675C111.421 471.675 111.621 471.108 111.765 469.974C111.908 468.825 111.98 467.069 111.98 464.708C111.98 462.705 111.934 461.151 111.842 460.049L110.617 470.463C110.75 471.271 110.932 471.675 111.163 471.675Z" fill="url(#paint27_linear_122_130)" fill-opacity="0.6"/>
<path d="M111.494 498.116H112.306V499.351H110.203V498.116H111.141V485.022L110.247 487.282L110.093 486.234L111.196 483.344H111.494V498.116Z" fill="url(#paint28_linear_122_130)" fill-opacity="0.6"/>
<path d="M111.163 509.739C111.557 509.739 111.855 510.446 112.057 511.859C112.263 513.257 112.366 515.292 112.366 517.964C112.366 520.635 112.263 522.678 112.057 524.091C111.855 525.505 111.557 526.212 111.163 526.212C110.773 526.212 110.475 525.505 110.269 524.091C110.063 522.678 109.96 520.635 109.96 517.964C109.96 515.308 110.063 513.273 110.269 511.859C110.475 510.446 110.773 509.739 111.163 509.739ZM110.352 517.964C110.352 519.859 110.393 521.342 110.474 522.414L111.699 512.092C111.57 511.362 111.391 510.997 111.163 510.997C110.91 510.997 110.711 511.572 110.567 512.721C110.424 513.855 110.352 515.603 110.352 517.964ZM111.163 524.93C111.421 524.93 111.621 524.363 111.765 523.229C111.908 522.08 111.98 520.325 111.98 517.964C111.98 515.96 111.934 514.407 111.842 513.304L110.617 523.719C110.75 524.526 110.932 524.93 111.163 524.93Z" fill="url(#paint29_linear_122_130)" fill-opacity="0.6"/>
<path d="M111.494 551.372H112.306V552.606H110.203V551.372H111.141V538.277L110.247 540.537L110.093 539.489L111.196 536.6H111.494V551.372Z" fill="url(#paint30_linear_122_130)" fill-opacity="0.6"/>
<path d="M111.494 577.999H112.306V579.234H110.203V577.999H111.141V564.905L110.247 567.165L110.093 566.117L111.196 563.227H111.494V577.999Z" fill="url(#paint31_linear_122_130)" fill-opacity="0.6"/>
<path d="M121.742 391.606H122.553V392.84H120.451V391.606H121.389V378.511L120.495 380.771L120.341 379.723L121.444 376.834H121.742V391.606Z" fill="url(#paint32_linear_122_130)" fill-opacity="0.6"/>
<path d="M121.411 403.229C121.805 403.229 122.103 403.935 122.305 405.349C122.511 406.747 122.614 408.782 122.614 411.453C122.614 414.125 122.511 416.167 122.305 417.581C122.103 418.994 121.805 419.701 121.411 419.701C121.021 419.701 120.723 418.994 120.517 417.581C120.311 416.167 120.208 414.125 120.208 411.453C120.208 408.797 120.311 406.762 120.517 405.349C120.723 403.935 121.021 403.229 121.411 403.229ZM120.6 411.453C120.6 413.348 120.641 414.832 120.721 415.903L121.946 405.582C121.818 404.852 121.639 404.487 121.411 404.487C121.157 404.487 120.959 405.061 120.815 406.211C120.672 407.345 120.6 409.092 120.6 411.453ZM121.411 418.42C121.669 418.42 121.869 417.853 122.013 416.719C122.156 415.569 122.228 413.814 122.228 411.453C122.228 409.449 122.182 407.896 122.09 406.793L120.865 417.208C120.997 418.016 121.179 418.42 121.411 418.42Z" fill="url(#paint33_linear_122_130)" fill-opacity="0.6"/>
<path d="M121.742 444.861H122.553V446.096H120.451V444.861H121.389V431.767L120.495 434.027L120.341 432.978L121.444 430.089H121.742V444.861Z" fill="url(#paint34_linear_122_130)" fill-opacity="0.6"/>
<path d="M121.742 471.489H122.553V472.723H120.451V471.489H121.389V458.394L120.495 460.654L120.341 459.606L121.444 456.717H121.742V471.489Z" fill="url(#paint35_linear_122_130)" fill-opacity="0.6"/>
<path d="M121.411 483.112C121.805 483.112 122.103 483.818 122.305 485.232C122.511 486.63 122.614 488.664 122.614 491.336C122.614 494.008 122.511 496.05 122.305 497.464C122.103 498.877 121.805 499.584 121.411 499.584C121.021 499.584 120.723 498.877 120.517 497.464C120.311 496.05 120.208 494.008 120.208 491.336C120.208 488.68 120.311 486.645 120.517 485.232C120.723 483.818 121.021 483.112 121.411 483.112ZM120.6 491.336C120.6 493.231 120.641 494.715 120.721 495.786L121.946 485.465C121.818 484.735 121.639 484.37 121.411 484.37C121.157 484.37 120.959 484.944 120.815 486.094C120.672 487.228 120.6 488.975 120.6 491.336ZM121.411 498.303C121.669 498.303 121.869 497.736 122.013 496.602C122.156 495.452 122.228 493.697 122.228 491.336C122.228 489.332 122.182 487.779 122.09 486.676L120.865 497.091C120.997 497.899 121.179 498.303 121.411 498.303Z" fill="url(#paint36_linear_122_130)" fill-opacity="0.6"/>
<path d="M121.742 524.744H122.553V525.979H120.451V524.744H121.389V511.65L120.495 513.91L120.341 512.861L121.444 509.972H121.742V524.744Z" fill="url(#paint37_linear_122_130)" fill-opacity="0.6"/>
<path d="M121.742 551.372H122.553V552.606H120.451V551.372H121.389V538.277L120.495 540.537L120.341 539.489L121.444 536.6H121.742V551.372Z" fill="url(#paint38_linear_122_130)" fill-opacity="0.6"/>
<path d="M121.411 562.994C121.805 562.994 122.103 563.701 122.305 565.115C122.511 566.513 122.614 568.547 122.614 571.219C122.614 573.891 122.511 575.933 122.305 577.347C122.103 578.76 121.805 579.467 121.411 579.467C121.021 579.467 120.723 578.76 120.517 577.347C120.311 575.933 120.208 573.891 120.208 571.219C120.208 568.563 120.311 566.528 120.517 565.115C120.723 563.701 121.021 562.994 121.411 562.994ZM120.6 571.219C120.6 573.114 120.641 574.597 120.721 575.669L121.946 565.348C121.818 564.618 121.639 564.253 121.411 564.253C121.157 564.253 120.959 564.827 120.815 565.977C120.672 567.111 120.6 568.858 120.6 571.219ZM121.411 578.186C121.669 578.186 121.869 577.619 122.013 576.485C122.156 575.335 122.228 573.58 122.228 571.219C122.228 569.215 122.182 567.662 122.09 566.559L120.865 576.974C120.997 577.782 121.179 578.186 121.411 578.186Z" fill="url(#paint39_linear_122_130)" fill-opacity="0.6"/>
<path d="M121.742 604.627H122.553V605.862H120.451V604.627H121.389V591.533L120.495 593.793L120.341 592.744L121.444 589.855H121.742V604.627Z" fill="url(#paint40_linear_122_130)" fill-opacity="0.6"/>
<path d="M121.411 616.25C121.805 616.25 122.103 616.957 122.305 618.37C122.511 619.768 122.614 621.803 122.614 624.474C122.614 627.146 122.511 629.189 122.305 630.602C122.103 632.016 121.805 632.722 121.411 632.722C121.021 632.722 120.723 632.016 120.517 630.602C120.311 629.189 120.208 627.146 120.208 624.474C120.208 621.818 120.311 619.784 120.517 618.37C120.723 616.957 121.021 616.25 121.411 616.25ZM120.6 624.474C120.6 626.369 120.641 627.853 120.721 628.925L121.946 618.603C121.818 617.873 121.639 617.508 121.411 617.508C121.157 617.508 120.959 618.083 120.815 619.232C120.672 620.366 120.6 622.113 120.6 624.474ZM121.411 631.441C121.669 631.441 121.869 630.874 122.013 629.74C122.156 628.591 122.228 626.835 122.228 624.474C122.228 622.471 122.182 620.917 122.09 619.815L120.865 630.229C120.997 631.037 121.179 631.441 121.411 631.441Z" fill="url(#paint41_linear_122_130)" fill-opacity="0.6"/>
<path d="M131.659 376.601C132.053 376.601 132.351 377.308 132.553 378.721C132.759 380.119 132.862 382.154 132.862 384.825C132.862 387.497 132.759 389.54 132.553 390.953C132.351 392.367 132.053 393.073 131.659 393.073C131.269 393.073 130.971 392.367 130.765 390.953C130.559 389.54 130.456 387.497 130.456 384.825C130.456 382.169 130.559 380.135 130.765 378.721C130.971 377.308 131.269 376.601 131.659 376.601ZM130.848 384.825C130.848 386.72 130.888 388.204 130.969 389.276L132.194 378.954C132.066 378.224 131.887 377.859 131.659 377.859C131.405 377.859 131.207 378.434 131.063 379.583C130.92 380.717 130.848 382.464 130.848 384.825ZM131.659 391.792C131.917 391.792 132.117 391.225 132.261 390.091C132.404 388.942 132.476 387.186 132.476 384.825C132.476 382.822 132.43 381.268 132.338 380.166L131.113 390.58C131.245 391.388 131.427 391.792 131.659 391.792Z" fill="url(#paint42_linear_122_130)" fill-opacity="0.6"/>
<path d="M131.99 418.233H132.801V419.468H130.699V418.233H131.637V405.139L130.743 407.399L130.589 406.351L131.692 403.462H131.99V418.233Z" fill="url(#paint43_linear_122_130)" fill-opacity="0.6"/>
<path d="M131.99 444.861H132.801V446.096H130.699V444.861H131.637V431.767L130.743 434.027L130.589 432.978L131.692 430.089H131.99V444.861Z" fill="url(#paint44_linear_122_130)" fill-opacity="0.6"/>
<path d="M131.659 456.484C132.053 456.484 132.351 457.191 132.553 458.604C132.759 460.002 132.862 462.037 132.862 464.708C132.862 467.38 132.759 469.423 132.553 470.836C132.351 472.25 132.053 472.956 131.659 472.956C131.269 472.956 130.971 472.25 130.765 470.836C130.559 469.423 130.456 467.38 130.456 464.708C130.456 462.052 130.559 460.018 130.765 458.604C130.971 457.191 131.269 456.484 131.659 456.484ZM130.848 464.708C130.848 466.603 130.888 468.087 130.969 469.159L132.194 458.837C132.066 458.107 131.887 457.742 131.659 457.742C131.405 457.742 131.207 458.317 131.063 459.466C130.92 460.6 130.848 462.347 130.848 464.708ZM131.659 471.675C131.917 471.675 132.117 471.108 132.261 469.974C132.404 468.825 132.476 467.069 132.476 464.708C132.476 462.705 132.43 461.151 132.338 460.049L131.113 470.463C131.245 471.271 131.427 471.675 131.659 471.675Z" fill="url(#paint45_linear_122_130)" fill-opacity="0.6"/>
<path d="M131.659 483.112C132.053 483.112 132.351 483.818 132.553 485.232C132.759 486.63 132.862 488.664 132.862 491.336C132.862 494.008 132.759 496.05 132.553 497.464C132.351 498.877 132.053 499.584 131.659 499.584C131.269 499.584 130.971 498.877 130.765 497.464C130.559 496.05 130.456 494.008 130.456 491.336C130.456 488.68 130.559 486.645 130.765 485.232C130.971 483.818 131.269 483.112 131.659 483.112ZM130.848 491.336C130.848 493.231 130.888 494.715 130.969 495.786L132.194 485.465C132.066 484.735 131.887 484.37 131.659 484.37C131.405 484.37 131.207 484.944 131.063 486.094C130.92 487.228 130.848 488.975 130.848 491.336ZM131.659 498.303C131.917 498.303 132.117 497.736 132.261 496.602C132.404 495.452 132.476 493.697 132.476 491.336C132.476 489.332 132.43 487.779 132.338 486.676L131.113 497.091C131.245 497.899 131.427 498.303 131.659 498.303Z" fill="url(#paint46_linear_122_130)" fill-opacity="0.6"/>
<g opacity="0.6">
<path d="M349.75 13.6388C350.126 13.6388 350.41 14.317 350.603 15.6735C350.8 17.015 350.898 18.9677 350.898 21.5316C350.898 24.0954 350.8 26.0556 350.603 27.412C350.41 28.7685 350.126 29.4467 349.75 29.4467C349.378 29.4467 349.094 28.7685 348.898 27.412C348.701 26.0556 348.603 24.0954 348.603 21.5316C348.603 18.9826 348.701 17.0299 348.898 15.6735C349.094 14.317 349.378 13.6388 349.75 13.6388ZM348.976 21.5316C348.976 23.3501 349.015 24.7737 349.092 25.8022L350.261 15.8971C350.138 15.1965 349.968 14.8462 349.75 14.8462C349.508 14.8462 349.319 15.3977 349.182 16.5008C349.045 17.5889 348.976 19.2659 348.976 21.5316ZM349.75 28.217C349.996 28.217 350.187 27.6729 350.324 26.5848C350.461 25.4817 350.529 23.7973 350.529 21.5316C350.529 19.6087 350.486 18.1181 350.398 17.0597L349.229 27.0543C349.356 27.8294 349.529 28.217 349.75 28.217Z" fill="url(#paint47_linear_122_130)"/>
<path d="M350.066 53.5915H350.84V54.7765H348.834V53.5915H349.729V41.0256L348.876 43.1944L348.729 42.1883L349.782 39.4157H350.066V53.5915Z" fill="url(#paint48_linear_122_130)"/>
<path d="M349.75 64.7455C350.126 64.7455 350.41 65.4237 350.603 66.7802C350.8 68.1217 350.898 70.0744 350.898 72.6383C350.898 75.2021 350.8 77.1623 350.603 78.5187C350.41 79.8752 350.126 80.5534 349.75 80.5534C349.378 80.5534 349.094 79.8752 348.898 78.5187C348.701 77.1623 348.603 75.2021 348.603 72.6383C348.603 70.0893 348.701 68.1366 348.898 66.7802C349.094 65.4237 349.378 64.7455 349.75 64.7455ZM348.976 72.6383C348.976 74.4568 349.015 75.8804 349.092 76.9089L350.261 67.0038C350.138 66.3032 349.968 65.9529 349.75 65.9529C349.508 65.9529 349.319 66.5044 349.182 67.6075C349.045 68.6956 348.976 70.3725 348.976 72.6383ZM349.75 79.3237C349.996 79.3237 350.187 78.7796 350.324 77.6914C350.461 76.5884 350.529 74.904 350.529 72.6383C350.529 70.7154 350.486 69.2248 350.398 68.1664L349.229 78.161C349.356 78.9361 349.529 79.3237 349.75 79.3237Z" fill="url(#paint49_linear_122_130)"/>
<path d="M350.066 104.698H350.84V105.883H348.834V104.698H349.729V92.1323L348.876 94.3011L348.729 93.295L349.782 90.5224H350.066V104.698Z" fill="url(#paint50_linear_122_130)"/>
<path d="M350.066 130.251H350.84V131.437H348.834V130.251H349.729V117.686L348.876 119.854L348.729 118.848L349.782 116.076H350.066V130.251Z" fill="url(#paint51_linear_122_130)"/>
<path d="M349.75 141.406C350.126 141.406 350.41 142.084 350.603 143.44C350.8 144.782 350.898 146.734 350.898 149.298C350.898 151.862 350.8 153.822 350.603 155.179C350.41 156.535 350.126 157.213 349.75 157.213C349.378 157.213 349.094 156.535 348.898 155.179C348.701 153.822 348.603 151.862 348.603 149.298C348.603 146.749 348.701 144.797 348.898 143.44C349.094 142.084 349.378 141.406 349.75 141.406ZM348.976 149.298C348.976 151.117 349.015 152.54 349.092 153.569L350.261 143.664C350.138 142.963 349.968 142.613 349.75 142.613C349.508 142.613 349.319 143.164 349.182 144.267C349.045 145.356 348.976 147.033 348.976 149.298ZM349.75 155.984C349.996 155.984 350.187 155.44 350.324 154.351C350.461 153.248 350.529 151.564 350.529 149.298C350.529 147.375 350.486 145.885 350.398 144.826L349.229 154.821C349.356 155.596 349.529 155.984 349.75 155.984Z" fill="url(#paint52_linear_122_130)"/>
<path d="M350.066 181.358H350.84V182.543H348.834V181.358H349.729V168.792L348.876 170.961L348.729 169.955L349.782 167.182H350.066V181.358Z" fill="url(#paint53_linear_122_130)"/>
<path d="M349.75 192.512C350.126 192.512 350.41 193.19 350.603 194.547C350.8 195.888 350.898 197.841 350.898 200.405C350.898 202.969 350.8 204.929 350.603 206.285C350.41 207.642 350.126 208.32 349.75 208.32C349.378 208.32 349.094 207.642 348.898 206.285C348.701 204.929 348.603 202.969 348.603 200.405C348.603 197.856 348.701 195.903 348.898 194.547C349.094 193.19 349.378 192.512 349.75 192.512ZM348.976 200.405C348.976 202.224 349.015 203.647 349.092 204.676L350.261 194.77C350.138 194.07 349.968 193.72 349.75 193.72C349.508 193.72 349.319 194.271 349.182 195.374C349.045 196.462 348.976 198.139 348.976 200.405ZM349.75 207.09C349.996 207.09 350.187 206.546 350.324 205.458C350.461 204.355 350.529 202.671 350.529 200.405C350.529 198.482 350.486 196.992 350.398 195.933L349.229 205.928C349.356 206.703 349.529 207.09 349.75 207.09Z" fill="url(#paint54_linear_122_130)"/>
<path d="M349.75 218.066C350.126 218.066 350.41 218.744 350.603 220.1C350.8 221.442 350.898 223.395 350.898 225.958C350.898 228.522 350.8 230.482 350.603 231.839C350.41 233.195 350.126 233.873 349.75 233.873C349.378 233.873 349.094 233.195 348.898 231.839C348.701 230.482 348.603 228.522 348.603 225.958C348.603 223.409 348.701 221.457 348.898 220.1C349.094 218.744 349.378 218.066 349.75 218.066ZM348.976 225.958C348.976 227.777 349.015 229.2 349.092 230.229L350.261 220.324C350.138 219.623 349.968 219.273 349.75 219.273C349.508 219.273 349.319 219.825 349.182 220.928C349.045 222.016 348.976 223.693 348.976 225.958ZM349.75 232.644C349.996 232.644 350.187 232.1 350.324 231.012C350.461 229.908 350.529 228.224 350.529 225.958C350.529 224.035 350.486 222.545 350.398 221.487L349.229 231.481C349.356 232.256 349.529 232.644 349.75 232.644Z" fill="url(#paint55_linear_122_130)"/>
<path d="M350.066 258.018H350.84V259.203H348.834V258.018H349.729V245.452L348.876 247.621L348.729 246.615L349.782 243.842H350.066V258.018Z" fill="url(#paint56_linear_122_130)"/>
<path d="M349.75 269.172C350.126 269.172 350.41 269.85 350.603 271.207C350.8 272.548 350.898 274.501 350.898 277.065C350.898 279.629 350.8 281.589 350.603 282.945C350.41 284.302 350.126 284.98 349.75 284.98C349.378 284.98 349.094 284.302 348.898 282.945C348.701 281.589 348.603 279.629 348.603 277.065C348.603 274.516 348.701 272.563 348.898 271.207C349.094 269.85 349.378 269.172 349.75 269.172ZM348.976 277.065C348.976 278.884 349.015 280.307 349.092 281.336L350.261 271.431C350.138 270.73 349.968 270.38 349.75 270.38C349.508 270.38 349.319 270.931 349.182 272.034C349.045 273.122 348.976 274.799 348.976 277.065ZM349.75 283.75C349.996 283.75 350.187 283.206 350.324 282.118C350.461 281.015 350.529 279.331 350.529 277.065C350.529 275.142 350.486 273.652 350.398 272.593L349.229 282.588C349.356 283.363 349.529 283.75 349.75 283.75Z" fill="url(#paint57_linear_122_130)"/>
<path d="M350.066 309.125H350.84V310.31H348.834V309.125H349.729V296.559L348.876 298.728L348.729 297.722L349.782 294.949H350.066V309.125Z" fill="url(#paint58_linear_122_130)"/>
<path d="M350.066 334.678H350.84V335.863H348.834V334.678H349.729V322.112L348.876 324.281L348.729 323.275L349.782 320.503H350.066V334.678Z" fill="url(#paint59_linear_122_130)"/>
<path d="M359.527 64.7455C359.903 64.7455 360.187 65.4237 360.38 66.7802C360.576 68.1217 360.675 70.0744 360.675 72.6383C360.675 75.2021 360.576 77.1623 360.38 78.5187C360.187 79.8752 359.903 80.5534 359.527 80.5534C359.155 80.5534 358.871 79.8752 358.674 78.5187C358.478 77.1623 358.379 75.2021 358.379 72.6383C358.379 70.0893 358.478 68.1366 358.674 66.7802C358.871 65.4237 359.155 64.7455 359.527 64.7455ZM358.753 72.6383C358.753 74.4568 358.792 75.8804 358.869 76.9089L360.038 67.0038C359.915 66.3032 359.745 65.9529 359.527 65.9529C359.285 65.9529 359.095 66.5044 358.958 67.6075C358.822 68.6956 358.753 70.3725 358.753 72.6383ZM359.527 79.3237C359.773 79.3237 359.964 78.7796 360.101 77.6914C360.238 76.5884 360.306 74.904 360.306 72.6383C360.306 70.7154 360.262 69.2248 360.175 68.1664L359.006 78.161C359.132 78.9361 359.306 79.3237 359.527 79.3237Z" fill="url(#paint60_linear_122_130)"/>
<path d="M359.843 104.698H360.617V105.883H358.611V104.698H359.506V92.1323L358.653 94.3011L358.506 93.295L359.559 90.5224H359.843V104.698Z" fill="url(#paint61_linear_122_130)"/>
<path d="M359.527 115.852C359.903 115.852 360.187 116.53 360.38 117.887C360.576 119.228 360.675 121.181 360.675 123.745C360.675 126.309 360.576 128.269 360.38 129.625C360.187 130.982 359.903 131.66 359.527 131.66C359.155 131.66 358.871 130.982 358.674 129.625C358.478 128.269 358.379 126.309 358.379 123.745C358.379 121.196 358.478 119.243 358.674 117.887C358.871 116.53 359.155 115.852 359.527 115.852ZM358.753 123.745C358.753 125.564 358.792 126.987 358.869 128.016L360.038 118.11C359.915 117.41 359.745 117.06 359.527 117.06C359.285 117.06 359.095 117.611 358.958 118.714C358.822 119.802 358.753 121.479 358.753 123.745ZM359.527 130.43C359.773 130.43 359.964 129.886 360.101 128.798C360.238 127.695 360.306 126.011 360.306 123.745C360.306 121.822 360.262 120.331 360.175 119.273L359.006 129.268C359.132 130.043 359.306 130.43 359.527 130.43Z" fill="url(#paint62_linear_122_130)"/>
<path d="M359.527 141.406C359.903 141.406 360.187 142.084 360.38 143.44C360.576 144.782 360.675 146.734 360.675 149.298C360.675 151.862 360.576 153.822 360.38 155.179C360.187 156.535 359.903 157.213 359.527 157.213C359.155 157.213 358.871 156.535 358.674 155.179C358.478 153.822 358.379 151.862 358.379 149.298C358.379 146.749 358.478 144.797 358.674 143.44C358.871 142.084 359.155 141.406 359.527 141.406ZM358.753 149.298C358.753 151.117 358.792 152.54 358.869 153.569L360.038 143.664C359.915 142.963 359.745 142.613 359.527 142.613C359.285 142.613 359.095 143.164 358.958 144.267C358.822 145.356 358.753 147.033 358.753 149.298ZM359.527 155.984C359.773 155.984 359.964 155.44 360.101 154.351C360.238 153.248 360.306 151.564 360.306 149.298C360.306 147.375 360.262 145.885 360.175 144.826L359.006 154.821C359.132 155.596 359.306 155.984 359.527 155.984Z" fill="url(#paint63_linear_122_130)"/>
<path d="M359.843 181.358H360.617V182.543H358.611V181.358H359.506V168.792L358.653 170.961L358.506 169.955L359.559 167.182H359.843V181.358Z" fill="url(#paint64_linear_122_130)"/>
<path d="M359.527 192.512C359.903 192.512 360.187 193.19 360.38 194.547C360.576 195.888 360.675 197.841 360.675 200.405C360.675 202.969 360.576 204.929 360.38 206.285C360.187 207.642 359.903 208.32 359.527 208.32C359.155 208.32 358.871 207.642 358.674 206.285C358.478 204.929 358.379 202.969 358.379 200.405C358.379 197.856 358.478 195.903 358.674 194.547C358.871 193.19 359.155 192.512 359.527 192.512ZM358.753 200.405C358.753 202.224 358.792 203.647 358.869 204.676L360.038 194.77C359.915 194.07 359.745 193.72 359.527 193.72C359.285 193.72 359.095 194.271 358.958 195.374C358.822 196.462 358.753 198.139 358.753 200.405ZM359.527 207.09C359.773 207.09 359.964 206.546 360.101 205.458C360.238 204.355 360.306 202.671 360.306 200.405C360.306 198.482 360.262 196.992 360.175 195.933L359.006 205.928C359.132 206.703 359.306 207.09 359.527 207.09Z" fill="url(#paint65_linear_122_130)"/>
<path d="M359.843 232.465H360.617V233.65H358.611V232.465H359.506V219.899L358.653 222.068L358.506 221.062L359.559 218.289H359.843V232.465Z" fill="url(#paint66_linear_122_130)"/>
<path d="M359.527 243.619C359.903 243.619 360.187 244.297 360.38 245.654C360.576 246.995 360.675 248.948 360.675 251.512C360.675 254.076 360.576 256.036 360.38 257.392C360.187 258.749 359.903 259.427 359.527 259.427C359.155 259.427 358.871 258.749 358.674 257.392C358.478 256.036 358.379 254.076 358.379 251.512C358.379 248.963 358.478 247.01 358.674 245.654C358.871 244.297 359.155 243.619 359.527 243.619ZM358.753 251.512C358.753 253.33 358.792 254.754 358.869 255.782L360.038 245.877C359.915 245.177 359.745 244.826 359.527 244.826C359.285 244.826 359.095 245.378 358.958 246.481C358.822 247.569 358.753 249.246 358.753 251.512ZM359.527 258.197C359.773 258.197 359.964 257.653 360.101 256.565C360.238 255.462 360.306 253.777 360.306 251.512C360.306 249.589 360.262 248.098 360.175 247.04L359.006 257.034C359.132 257.81 359.306 258.197 359.527 258.197Z" fill="url(#paint67_linear_122_130)"/>
<path d="M359.527 269.172C359.903 269.172 360.187 269.85 360.38 271.207C360.576 272.548 360.675 274.501 360.675 277.065C360.675 279.629 360.576 281.589 360.38 282.945C360.187 284.302 359.903 284.98 359.527 284.98C359.155 284.98 358.871 284.302 358.674 282.945C358.478 281.589 358.379 279.629 358.379 277.065C358.379 274.516 358.478 272.563 358.674 271.207C358.871 269.85 359.155 269.172 359.527 269.172ZM358.753 277.065C358.753 278.884 358.792 280.307 358.869 281.336L360.038 271.431C359.915 270.73 359.745 270.38 359.527 270.38C359.285 270.38 359.095 270.931 358.958 272.034C358.822 273.122 358.753 274.799 358.753 277.065ZM359.527 283.75C359.773 283.75 359.964 283.206 360.101 282.118C360.238 281.015 360.306 279.331 360.306 277.065C360.306 275.142 360.262 273.652 360.175 272.593L359.006 282.588C359.132 283.363 359.306 283.75 359.527 283.75Z" fill="url(#paint68_linear_122_130)"/>
<path d="M359.843 309.125H360.617V310.31H358.611V309.125H359.506V296.559L358.653 298.728L358.506 297.722L359.559 294.949H359.843V309.125Z" fill="url(#paint69_linear_122_130)"/>
<path d="M359.527 320.279C359.903 320.279 360.187 320.957 360.38 322.314C360.576 323.655 360.675 325.608 360.675 328.172C360.675 330.736 360.576 332.696 360.38 334.052C360.187 335.409 359.903 336.087 359.527 336.087C359.155 336.087 358.871 335.409 358.674 334.052C358.478 332.696 358.379 330.736 358.379 328.172C358.379 325.623 358.478 323.67 358.674 322.314C358.871 320.957 359.155 320.279 359.527 320.279ZM358.753 328.172C358.753 329.99 358.792 331.414 358.869 332.442L360.038 322.537C359.915 321.837 359.745 321.486 359.527 321.486C359.285 321.486 359.095 322.038 358.958 323.141C358.822 324.229 358.753 325.906 358.753 328.172ZM359.527 334.857C359.773 334.857 359.964 334.313 360.101 333.225C360.238 332.122 360.306 330.437 360.306 328.172C360.306 326.249 360.262 324.758 360.175 323.7L359.006 333.694C359.132 334.47 359.306 334.857 359.527 334.857Z" fill="url(#paint70_linear_122_130)"/>
<path d="M359.843 360.232H360.617V361.417H358.611V360.232H359.506V347.666L358.653 349.835L358.506 348.828L359.559 346.056H359.843V360.232Z" fill="url(#paint71_linear_122_130)"/>
<path d="M359.843 385.785H360.617V386.97H358.611V385.785H359.506V373.219L358.653 375.388L358.506 374.382L359.559 371.609H359.843V385.785Z" fill="url(#paint72_linear_122_130)"/>
<path d="M344.862 90.2988C345.238 90.2988 345.522 90.9771 345.715 92.3335C345.911 93.6751 346.01 95.6278 346.01 98.1916C346.01 100.755 345.911 102.716 345.715 104.072C345.522 105.429 345.238 106.107 344.862 106.107C344.49 106.107 344.206 105.429 344.009 104.072C343.813 102.716 343.714 100.755 343.714 98.1916C343.714 95.6427 343.813 93.69 344.009 92.3335C344.206 90.9771 344.49 90.2988 344.862 90.2988ZM344.088 98.1916C344.088 100.01 344.127 101.434 344.204 102.462L345.373 92.5571C345.25 91.8565 345.08 91.5062 344.862 91.5062C344.62 91.5062 344.43 92.0578 344.293 93.1608C344.157 94.249 344.088 95.9259 344.088 98.1916ZM344.862 104.877C345.108 104.877 345.299 104.333 345.436 103.245C345.573 102.142 345.641 100.457 345.641 98.1916C345.641 96.2687 345.597 94.7781 345.51 93.7198L344.341 103.714C344.467 104.489 344.641 104.877 344.862 104.877Z" fill="url(#paint73_linear_122_130)"/>
<path d="M344.862 115.852C345.238 115.852 345.522 116.53 345.715 117.887C345.911 119.228 346.01 121.181 346.01 123.745C346.01 126.309 345.911 128.269 345.715 129.625C345.522 130.982 345.238 131.66 344.862 131.66C344.49 131.66 344.206 130.982 344.009 129.625C343.813 128.269 343.714 126.309 343.714 123.745C343.714 121.196 343.813 119.243 344.009 117.887C344.206 116.53 344.49 115.852 344.862 115.852ZM344.088 123.745C344.088 125.564 344.127 126.987 344.204 128.016L345.373 118.11C345.25 117.41 345.08 117.06 344.862 117.06C344.62 117.06 344.43 117.611 344.293 118.714C344.157 119.802 344.088 121.479 344.088 123.745ZM344.862 130.43C345.108 130.43 345.299 129.886 345.436 128.798C345.573 127.695 345.641 126.011 345.641 123.745C345.641 121.822 345.597 120.331 345.51 119.273L344.341 129.268C344.467 130.043 344.641 130.43 344.862 130.43Z" fill="url(#paint74_linear_122_130)"/>
<path d="M345.178 155.805H345.952V156.99H343.946V155.805H344.841V143.239L343.988 145.408L343.841 144.402L344.894 141.629H345.178V155.805Z" fill="url(#paint75_linear_122_130)"/>
<path d="M344.862 166.959C345.238 166.959 345.522 167.637 345.715 168.994C345.911 170.335 346.01 172.288 346.01 174.852C346.01 177.416 345.911 179.376 345.715 180.732C345.522 182.089 345.238 182.767 344.862 182.767C344.49 182.767 344.206 182.089 344.009 180.732C343.813 179.376 343.714 177.416 343.714 174.852C343.714 172.303 343.813 170.35 344.009 168.994C344.206 167.637 344.49 166.959 344.862 166.959ZM344.088 174.852C344.088 176.67 344.127 178.094 344.204 179.122L345.373 169.217C345.25 168.517 345.08 168.166 344.862 168.166C344.62 168.166 344.43 168.718 344.293 169.821C344.157 170.909 344.088 172.586 344.088 174.852ZM344.862 181.537C345.108 181.537 345.299 180.993 345.436 179.905C345.573 178.802 345.641 177.117 345.641 174.852C345.641 172.929 345.597 171.438 345.51 170.38L344.341 180.374C344.467 181.149 344.641 181.537 344.862 181.537Z" fill="url(#paint76_linear_122_130)"/>
<path d="M345.178 206.912H345.952V208.097H343.946V206.912H344.841V194.346L343.988 196.515L343.841 195.508L344.894 192.736H345.178V206.912Z" fill="url(#paint77_linear_122_130)"/>
<path d="M345.178 232.465H345.952V233.65H343.946V232.465H344.841V219.899L343.988 222.068L343.841 221.062L344.894 218.289H345.178V232.465Z" fill="url(#paint78_linear_122_130)"/>
<path d="M354.955 53.5915H355.728V54.7765H353.723V53.5915H354.618V41.0256L353.765 43.1944L353.617 42.1883L354.67 39.4157H354.955V53.5915Z" fill="url(#paint79_linear_122_130)"/>
<path d="M354.639 64.7455C355.014 64.7455 355.298 65.4237 355.491 66.7802C355.688 68.1217 355.786 70.0744 355.786 72.6383C355.786 75.2021 355.688 77.1623 355.491 78.5187C355.298 79.8752 355.014 80.5534 354.639 80.5534C354.267 80.5534 353.982 79.8752 353.786 78.5187C353.589 77.1623 353.491 75.2021 353.491 72.6383C353.491 70.0893 353.589 68.1366 353.786 66.7802C353.982 65.4237 354.267 64.7455 354.639 64.7455ZM353.865 72.6383C353.865 74.4568 353.903 75.8804 353.981 76.9089L355.149 67.0038C355.026 66.3032 354.856 65.9529 354.639 65.9529C354.397 65.9529 354.207 66.5044 354.07 67.6075C353.933 68.6956 353.865 70.3725 353.865 72.6383ZM354.639 79.3237C354.884 79.3237 355.076 78.7796 355.212 77.6914C355.349 76.5884 355.418 74.904 355.418 72.6383C355.418 70.7154 355.374 69.2248 355.286 68.1664L354.117 78.161C354.244 78.9361 354.418 79.3237 354.639 79.3237Z" fill="url(#paint80_linear_122_130)"/>
<path d="M354.955 104.698H355.728V105.883H353.723V104.698H354.618V92.1323L353.765 94.3011L353.617 93.295L354.67 90.5224H354.955V104.698Z" fill="url(#paint81_linear_122_130)"/>
<path d="M354.955 130.251H355.728V131.437H353.723V130.251H354.618V117.686L353.765 119.854L353.617 118.848L354.67 116.076H354.955V130.251Z" fill="url(#paint82_linear_122_130)"/>
<path d="M354.639 141.406C355.014 141.406 355.298 142.084 355.491 143.44C355.688 144.782 355.786 146.734 355.786 149.298C355.786 151.862 355.688 153.822 355.491 155.179C355.298 156.535 355.014 157.213 354.639 157.213C354.267 157.213 353.982 156.535 353.786 155.179C353.589 153.822 353.491 151.862 353.491 149.298C353.491 146.749 353.589 144.797 353.786 143.44C353.982 142.084 354.267 141.406 354.639 141.406ZM353.865 149.298C353.865 151.117 353.903 152.54 353.981 153.569L355.149 143.664C355.026 142.963 354.856 142.613 354.639 142.613C354.397 142.613 354.207 143.164 354.07 144.267C353.933 145.356 353.865 147.033 353.865 149.298ZM354.639 155.984C354.884 155.984 355.076 155.44 355.212 154.351C355.349 153.248 355.418 151.564 355.418 149.298C355.418 147.375 355.374 145.885 355.286 144.826L354.117 154.821C354.244 155.596 354.418 155.984 354.639 155.984Z" fill="url(#paint83_linear_122_130)"/>
<path d="M354.955 181.358H355.728V182.543H353.723V181.358H354.618V168.792L353.765 170.961L353.617 169.955L354.67 167.182H354.955V181.358Z" fill="url(#paint84_linear_122_130)"/>
<path d="M354.955 206.912H355.728V208.097H353.723V206.912H354.618V194.346L353.765 196.515L353.617 195.508L354.67 192.736H354.955V206.912Z" fill="url(#paint85_linear_122_130)"/>
<path d="M354.639 218.066C355.014 218.066 355.298 218.744 355.491 220.1C355.688 221.442 355.786 223.395 355.786 225.958C355.786 228.522 355.688 230.482 355.491 231.839C355.298 233.195 355.014 233.873 354.639 233.873C354.267 233.873 353.982 233.195 353.786 231.839C353.589 230.482 353.491 228.522 353.491 225.958C353.491 223.409 353.589 221.457 353.786 220.1C353.982 218.744 354.267 218.066 354.639 218.066ZM353.865 225.958C353.865 227.777 353.903 229.2 353.981 230.229L355.149 220.324C355.026 219.623 354.856 219.273 354.639 219.273C354.397 219.273 354.207 219.825 354.07 220.928C353.933 222.016 353.865 223.693 353.865 225.958ZM354.639 232.644C354.884 232.644 355.076 232.1 355.212 231.012C355.349 229.908 355.418 228.224 355.418 225.958C355.418 224.035 355.374 222.545 355.286 221.487L354.117 231.481C354.244 232.256 354.418 232.644 354.639 232.644Z" fill="url(#paint86_linear_122_130)"/>
<path d="M354.955 258.018H355.728V259.203H353.723V258.018H354.618V245.452L353.765 247.621L353.617 246.615L354.67 243.842H354.955V258.018Z" fill="url(#paint87_linear_122_130)"/>
<path d="M354.639 269.172C355.014 269.172 355.298 269.85 355.491 271.207C355.688 272.548 355.786 274.501 355.786 277.065C355.786 279.629 355.688 281.589 355.491 282.945C355.298 284.302 355.014 284.98 354.639 284.98C354.267 284.98 353.982 284.302 353.786 282.945C353.589 281.589 353.491 279.629 353.491 277.065C353.491 274.516 353.589 272.563 353.786 271.207C353.982 269.85 354.267 269.172 354.639 269.172ZM353.865 277.065C353.865 278.884 353.903 280.307 353.981 281.336L355.149 271.431C355.026 270.73 354.856 270.38 354.639 270.38C354.397 270.38 354.207 270.931 354.07 272.034C353.933 273.122 353.865 274.799 353.865 277.065ZM354.639 283.75C354.884 283.75 355.076 283.206 355.212 282.118C355.349 281.015 355.418 279.331 355.418 277.065C355.418 275.142 355.374 273.652 355.286 272.593L354.117 282.588C354.244 283.363 354.418 283.75 354.639 283.75Z" fill="url(#paint88_linear_122_130)"/>
<path d="M364.415 39.1921C364.791 39.1921 365.075 39.8704 365.268 41.2268C365.465 42.5684 365.563 44.5211 365.563 47.0849C365.563 49.6488 365.465 51.6089 365.268 52.9654C365.075 54.3219 364.791 55.0001 364.415 55.0001C364.043 55.0001 363.759 54.3219 363.563 52.9654C363.366 51.6089 363.268 49.6488 363.268 47.0849C363.268 44.536 363.366 42.5833 363.563 41.2268C363.759 39.8704 364.043 39.1921 364.415 39.1921ZM363.641 47.0849C363.641 48.9035 363.68 50.327 363.757 51.3555L364.926 41.4504C364.803 40.7498 364.633 40.3995 364.415 40.3995C364.173 40.3995 363.984 40.9511 363.847 42.0541C363.71 43.1423 363.641 44.8192 363.641 47.0849ZM364.415 53.7703C364.661 53.7703 364.852 53.2263 364.989 52.1381C365.126 51.0351 365.194 49.3507 365.194 47.0849C365.194 45.162 365.151 43.6714 365.063 42.6131L363.894 52.6076C364.021 53.3828 364.194 53.7703 364.415 53.7703Z" fill="url(#paint89_linear_122_130)"/>
<path d="M364.731 79.1448H365.505V80.3298H363.499V79.1448H364.394V66.5789L363.541 68.7478L363.394 67.7416L364.447 64.9691H364.731V79.1448Z" fill="url(#paint90_linear_122_130)"/>
<path d="M364.731 104.698H365.505V105.883H363.499V104.698H364.394V92.1323L363.541 94.3011L363.394 93.295L364.447 90.5224H364.731V104.698Z" fill="url(#paint91_linear_122_130)"/>
<path d="M364.415 115.852C364.791 115.852 365.075 116.53 365.268 117.887C365.465 119.228 365.563 121.181 365.563 123.745C365.563 126.309 365.465 128.269 365.268 129.625C365.075 130.982 364.791 131.66 364.415 131.66C364.043 131.66 363.759 130.982 363.563 129.625C363.366 128.269 363.268 126.309 363.268 123.745C363.268 121.196 363.366 119.243 363.563 117.887C363.759 116.53 364.043 115.852 364.415 115.852ZM363.641 123.745C363.641 125.564 363.68 126.987 363.757 128.016L364.926 118.11C364.803 117.41 364.633 117.06 364.415 117.06C364.173 117.06 363.984 117.611 363.847 118.714C363.71 119.802 363.641 121.479 363.641 123.745ZM364.415 130.43C364.661 130.43 364.852 129.886 364.989 128.798C365.126 127.695 365.194 126.011 365.194 123.745C365.194 121.822 365.151 120.331 365.063 119.273L363.894 129.268C364.021 130.043 364.194 130.43 364.415 130.43Z" fill="url(#paint92_linear_122_130)"/>
<path d="M364.415 141.406C364.791 141.406 365.075 142.084 365.268 143.44C365.465 144.782 365.563 146.734 365.563 149.298C365.563 151.862 365.465 153.822 365.268 155.179C365.075 156.535 364.791 157.213 364.415 157.213C364.043 157.213 363.759 156.535 363.563 155.179C363.366 153.822 363.268 151.862 363.268 149.298C363.268 146.749 363.366 144.797 363.563 143.44C363.759 142.084 364.043 141.406 364.415 141.406ZM363.641 149.298C363.641 151.117 363.68 152.54 363.757 153.569L364.926 143.664C364.803 142.963 364.633 142.613 364.415 142.613C364.173 142.613 363.984 143.164 363.847 144.267C363.71 145.356 363.641 147.033 363.641 149.298ZM364.415 155.984C364.661 155.984 364.852 155.44 364.989 154.351C365.126 153.248 365.194 151.564 365.194 149.298C365.194 147.375 365.151 145.885 365.063 144.826L363.894 154.821C364.021 155.596 364.194 155.984 364.415 155.984Z" fill="url(#paint93_linear_122_130)"/>
</g>
</g>
<defs>
<filter id="filter0_f_122_130" x="-334.19" y="-707.19" width="1153.38" height="1585.16" filterUnits="userSpaceOnUse" color-interpolation-filters="sRGB">
<feFlood flood-opacity="0" result="BackgroundImageFix"/>
<feBlend mode="normal" in="SourceGraphic" in2="BackgroundImageFix" result="shape"/>
<feGaussianBlur stdDeviation="200.095" result="effect1_foregroundBlur_122_130"/>
</filter>
<linearGradient id="paint0_linear_122_130" x1="121.411" y1="349.973" x2="121.411" y2="699.067" gradientUnits="userSpaceOnUse">
<stop stop-color="#F7DD43"/>
<stop offset="1" stop-color="#F7DD43" stop-opacity="0"/>
</linearGradient>
<linearGradient id="paint1_linear_122_130" x1="121.411" y1="349.973" x2="121.411" y2="699.067" gradientUnits="userSpaceOnUse">
<stop stop-color="#F7DD43"/>
<stop offset="1" stop-color="#F7DD43" stop-opacity="0"/>
</linearGradient>
<linearGradient id="paint2_linear_122_130" x1="121.411" y1="349.973" x2="121.411" y2="699.067" gradientUnits="userSpaceOnUse">
<stop stop-color="#F7DD43"/>
<stop offset="1" stop-color="#F7DD43" stop-opacity="0"/>
</linearGradient>
<linearGradient id="paint3_linear_122_130" x1="121.411" y1="349.973" x2="121.411" y2="699.067" gradientUnits="userSpaceOnUse">
<stop stop-color="#F7DD43"/>
<stop offset="1" stop-color="#F7DD43" stop-opacity="0"/>
</linearGradient>
<linearGradient id="paint4_linear_122_130" x1="121.411" y1="349.973" x2="121.411" y2="699.067" gradientUnits="userSpaceOnUse">
<stop stop-color="#F7DD43"/>
<stop offset="1" stop-color="#F7DD43" stop-opacity="0"/>
</linearGradient>
<linearGradient id="paint5_linear_122_130" x1="121.411" y1="349.973" x2="121.411" y2="699.067" gradientUnits="userSpaceOnUse">
<stop stop-color="#F7DD43"/>
<stop offset="1" stop-color="#F7DD43" stop-opacity="0"/>
</linearGradient>
<linearGradient id="paint6_linear_122_130" x1="121.411" y1="349.973" x2="121.411" y2="699.067" gradientUnits="userSpaceOnUse">
<stop stop-color="#F7DD43"/>
<stop offset="1" stop-color="#F7DD43" stop-opacity="0"/>
</linearGradient>
<linearGradient id="paint7_linear_122_130" x1="121.411" y1="349.973" x2="121.411" y2="699.067" gradientUnits="userSpaceOnUse">
<stop stop-color="#F7DD43"/>
<stop offset="1" stop-color="#F7DD43" stop-opacity="0"/>
</linearGradient>
<linearGradient id="paint8_linear_122_130" x1="121.411" y1="349.973" x2="121.411" y2="699.067" gradientUnits="userSpaceOnUse">
<stop stop-color="#F7DD43"/>
<stop offset="1" stop-color="#F7DD43" stop-opacity="0"/>
</linearGradient>
<linearGradient id="paint9_linear_122_130" x1="121.411" y1="349.973" x2="121.411" y2="699.067" gradientUnits="userSpaceOnUse">
<stop stop-color="#F7DD43"/>
<stop offset="1" stop-color="#F7DD43" stop-opacity="0"/>
</linearGradient>
<linearGradient id="paint10_linear_122_130" x1="121.411" y1="349.973" x2="121.411" y2="699.067" gradientUnits="userSpaceOnUse">
<stop stop-color="#F7DD43"/>
<stop offset="1" stop-color="#F7DD43" stop-opacity="0"/>
</linearGradient>
<linearGradient id="paint11_linear_122_130" x1="121.411" y1="349.973" x2="121.411" y2="699.067" gradientUnits="userSpaceOnUse">
<stop stop-color="#F7DD43"/>
<stop offset="1" stop-color="#F7DD43" stop-opacity="0"/>
</linearGradient>
<linearGradient id="paint12_linear_122_130" x1="121.411" y1="349.973" x2="121.411" y2="699.067" gradientUnits="userSpaceOnUse">
<stop stop-color="#F7DD43"/>
<stop offset="1" stop-color="#F7DD43" stop-opacity="0"/>
</linearGradient>
<linearGradient id="paint13_linear_122_130" x1="121.411" y1="349.973" x2="121.411" y2="699.067" gradientUnits="userSpaceOnUse">
<stop stop-color="#F7DD43"/>
<stop offset="1" stop-color="#F7DD43" stop-opacity="0"/>
</linearGradient>
<linearGradient id="paint14_linear_122_130" x1="121.411" y1="349.973" x2="121.411" y2="699.067" gradientUnits="userSpaceOnUse">
<stop stop-color="#F7DD43"/>
<stop offset="1" stop-color="#F7DD43" stop-opacity="0"/>
</linearGradient>
<linearGradient id="paint15_linear_122_130" x1="121.411" y1="349.973" x2="121.411" y2="699.067" gradientUnits="userSpaceOnUse">
<stop stop-color="#F7DD43"/>
<stop offset="1" stop-color="#F7DD43" stop-opacity="0"/>
</linearGradient>
<linearGradient id="paint16_linear_122_130" x1="121.411" y1="349.973" x2="121.411" y2="699.067" gradientUnits="userSpaceOnUse">
<stop stop-color="#F7DD43"/>
<stop offset="1" stop-color="#F7DD43" stop-opacity="0"/>
</linearGradient>
<linearGradient id="paint17_linear_122_130" x1="121.411" y1="349.973" x2="121.411" y2="699.067" gradientUnits="userSpaceOnUse">
<stop stop-color="#F7DD43"/>
<stop offset="1" stop-color="#F7DD43" stop-opacity="0"/>
</linearGradient>
<linearGradient id="paint18_linear_122_130" x1="121.411" y1="349.973" x2="121.411" y2="699.067" gradientUnits="userSpaceOnUse">
<stop stop-color="#F7DD43"/>
<stop offset="1" stop-color="#F7DD43" stop-opacity="0"/>
</linearGradient>
<linearGradient id="paint19_linear_122_130" x1="121.411" y1="349.973" x2="121.411" y2="699.067" gradientUnits="userSpaceOnUse">
<stop stop-color="#F7DD43"/>
<stop offset="1" stop-color="#F7DD43" stop-opacity="0"/>
</linearGradient>
<linearGradient id="paint20_linear_122_130" x1="121.411" y1="349.973" x2="121.411" y2="699.067" gradientUnits="userSpaceOnUse">
<stop stop-color="#F7DD43"/>
<stop offset="1" stop-color="#F7DD43" stop-opacity="0"/>
</linearGradient>
<linearGradient id="paint21_linear_122_130" x1="121.411" y1="349.973" x2="121.411" y2="699.067" gradientUnits="userSpaceOnUse">
<stop stop-color="#F7DD43"/>
<stop offset="1" stop-color="#F7DD43" stop-opacity="0"/>
</linearGradient>
<linearGradient id="paint22_linear_122_130" x1="121.411" y1="349.973" x2="121.411" y2="699.067" gradientUnits="userSpaceOnUse">
<stop stop-color="#F7DD43"/>
<stop offset="1" stop-color="#F7DD43" stop-opacity="0"/>
</linearGradient>
<linearGradient id="paint23_linear_122_130" x1="121.411" y1="349.973" x2="121.411" y2="699.067" gradientUnits="userSpaceOnUse">
<stop stop-color="#F7DD43"/>
<stop offset="1" stop-color="#F7DD43" stop-opacity="0"/>
</linearGradient>
<linearGradient id="paint24_linear_122_130" x1="121.411" y1="349.973" x2="121.411" y2="699.067" gradientUnits="userSpaceOnUse">
<stop stop-color="#F7DD43"/>
<stop offset="1" stop-color="#F7DD43" stop-opacity="0"/>
</linearGradient>
<linearGradient id="paint25_linear_122_130" x1="121.411" y1="349.973" x2="121.411" y2="699.067" gradientUnits="userSpaceOnUse">
<stop stop-color="#F7DD43"/>
<stop offset="1" stop-color="#F7DD43" stop-opacity="0"/>
</linearGradient>
<linearGradient id="paint26_linear_122_130" x1="121.411" y1="349.973" x2="121.411" y2="699.067" gradientUnits="userSpaceOnUse">
<stop stop-color="#F7DD43"/>
<stop offset="1" stop-color="#F7DD43" stop-opacity="0"/>
</linearGradient>
<linearGradient id="paint27_linear_122_130" x1="121.411" y1="349.973" x2="121.411" y2="699.067" gradientUnits="userSpaceOnUse">
<stop stop-color="#F7DD43"/>
<stop offset="1" stop-color="#F7DD43" stop-opacity="0"/>
</linearGradient>
<linearGradient id="paint28_linear_122_130" x1="121.411" y1="349.973" x2="121.411" y2="699.067" gradientUnits="userSpaceOnUse">
<stop stop-color="#F7DD43"/>
<stop offset="1" stop-color="#F7DD43" stop-opacity="0"/>
</linearGradient>
<linearGradient id="paint29_linear_122_130" x1="121.411" y1="349.973" x2="121.411" y2="699.067" gradientUnits="userSpaceOnUse">
<stop stop-color="#F7DD43"/>
<stop offset="1" stop-color="#F7DD43" stop-opacity="0"/>
</linearGradient>
<linearGradient id="paint30_linear_122_130" x1="121.411" y1="349.973" x2="121.411" y2="699.067" gradientUnits="userSpaceOnUse">
<stop stop-color="#F7DD43"/>
<stop offset="1" stop-color="#F7DD43" stop-opacity="0"/>
</linearGradient>
<linearGradient id="paint31_linear_122_130" x1="121.411" y1="349.973" x2="121.411" y2="699.067" gradientUnits="userSpaceOnUse">
<stop stop-color="#F7DD43"/>
<stop offset="1" stop-color="#F7DD43" stop-opacity="0"/>
</linearGradient>
<linearGradient id="paint32_linear_122_130" x1="121.411" y1="349.973" x2="121.411" y2="699.067" gradientUnits="userSpaceOnUse">
<stop stop-color="#F7DD43"/>
<stop offset="1" stop-color="#F7DD43" stop-opacity="0"/>
</linearGradient>
<linearGradient id="paint33_linear_122_130" x1="121.411" y1="349.973" x2="121.411" y2="699.067" gradientUnits="userSpaceOnUse">
<stop stop-color="#F7DD43"/>
<stop offset="1" stop-color="#F7DD43" stop-opacity="0"/>
</linearGradient>
<linearGradient id="paint34_linear_122_130" x1="121.411" y1="349.973" x2="121.411" y2="699.067" gradientUnits="userSpaceOnUse">
<stop stop-color="#F7DD43"/>
<stop offset="1" stop-color="#F7DD43" stop-opacity="0"/>
</linearGradient>
<linearGradient id="paint35_linear_122_130" x1="121.411" y1="349.973" x2="121.411" y2="699.067" gradientUnits="userSpaceOnUse">
<stop stop-color="#F7DD43"/>
<stop offset="1" stop-color="#F7DD43" stop-opacity="0"/>
</linearGradient>
<linearGradient id="paint36_linear_122_130" x1="121.411" y1="349.973" x2="121.411" y2="699.067" gradientUnits="userSpaceOnUse">
<stop stop-color="#F7DD43"/>
<stop offset="1" stop-color="#F7DD43" stop-opacity="0"/>
</linearGradient>
<linearGradient id="paint37_linear_122_130" x1="121.411" y1="349.973" x2="121.411" y2="699.067" gradientUnits="userSpaceOnUse">
<stop stop-color="#F7DD43"/>
<stop offset="1" stop-color="#F7DD43" stop-opacity="0"/>
</linearGradient>
<linearGradient id="paint38_linear_122_130" x1="121.411" y1="349.973" x2="121.411" y2="699.067" gradientUnits="userSpaceOnUse">
<stop stop-color="#F7DD43"/>
<stop offset="1" stop-color="#F7DD43" stop-opacity="0"/>
</linearGradient>
<linearGradient id="paint39_linear_122_130" x1="121.411" y1="349.973" x2="121.411" y2="699.067" gradientUnits="userSpaceOnUse">
<stop stop-color="#F7DD43"/>
<stop offset="1" stop-color="#F7DD43" stop-opacity="0"/>
</linearGradient>
<linearGradient id="paint40_linear_122_130" x1="121.411" y1="349.973" x2="121.411" y2="699.067" gradientUnits="userSpaceOnUse">
<stop stop-color="#F7DD43"/>
<stop offset="1" stop-color="#F7DD43" stop-opacity="0"/>
</linearGradient>
<linearGradient id="paint41_linear_122_130" x1="121.411" y1="349.973" x2="121.411" y2="699.067" gradientUnits="userSpaceOnUse">
<stop stop-color="#F7DD43"/>
<stop offset="1" stop-color="#F7DD43" stop-opacity="0"/>
</linearGradient>
<linearGradient id="paint42_linear_122_130" x1="121.411" y1="349.973" x2="121.411" y2="699.067" gradientUnits="userSpaceOnUse">
<stop stop-color="#F7DD43"/>
<stop offset="1" stop-color="#F7DD43" stop-opacity="0"/>
</linearGradient>
<linearGradient id="paint43_linear_122_130" x1="121.411" y1="349.973" x2="121.411" y2="699.067" gradientUnits="userSpaceOnUse">
<stop stop-color="#F7DD43"/>
<stop offset="1" stop-color="#F7DD43" stop-opacity="0"/>
</linearGradient>
<linearGradient id="paint44_linear_122_130" x1="121.411" y1="349.973" x2="121.411" y2="699.067" gradientUnits="userSpaceOnUse">
<stop stop-color="#F7DD43"/>
<stop offset="1" stop-color="#F7DD43" stop-opacity="0"/>
</linearGradient>
<linearGradient id="paint45_linear_122_130" x1="121.411" y1="349.973" x2="121.411" y2="699.067" gradientUnits="userSpaceOnUse">
<stop stop-color="#F7DD43"/>
<stop offset="1" stop-color="#F7DD43" stop-opacity="0"/>
</linearGradient>
<linearGradient id="paint46_linear_122_130" x1="121.411" y1="349.973" x2="121.411" y2="699.067" gradientUnits="userSpaceOnUse">
<stop stop-color="#F7DD43"/>
<stop offset="1" stop-color="#F7DD43" stop-opacity="0"/>
</linearGradient>
<linearGradient id="paint47_linear_122_130" x1="354.639" y1="13.6388" x2="354.639" y2="348.648" gradientUnits="userSpaceOnUse">
<stop stop-color="#F7DD43"/>
<stop offset="1" stop-color="#F7DD43" stop-opacity="0"/>
</linearGradient>
<linearGradient id="paint48_linear_122_130" x1="354.639" y1="13.6388" x2="354.639" y2="348.648" gradientUnits="userSpaceOnUse">
<stop stop-color="#F7DD43"/>
<stop offset="1" stop-color="#F7DD43" stop-opacity="0"/>
</linearGradient>
<linearGradient id="paint49_linear_122_130" x1="354.639" y1="13.6388" x2="354.639" y2="348.648" gradientUnits="userSpaceOnUse">
<stop stop-color="#F7DD43"/>
<stop offset="1" stop-color="#F7DD43" stop-opacity="0"/>
</linearGradient>
<linearGradient id="paint50_linear_122_130" x1="354.639" y1="13.6388" x2="354.639" y2="348.648" gradientUnits="userSpaceOnUse">
<stop stop-color="#F7DD43"/>
<stop offset="1" stop-color="#F7DD43" stop-opacity="0"/>
</linearGradient>
<linearGradient id="paint51_linear_122_130" x1="354.639" y1="13.6388" x2="354.639" y2="348.648" gradientUnits="userSpaceOnUse">
<stop stop-color="#F7DD43"/>
<stop offset="1" stop-color="#F7DD43" stop-opacity="0"/>
</linearGradient>
<linearGradient id="paint52_linear_122_130" x1="354.639" y1="13.6388" x2="354.639" y2="348.648" gradientUnits="userSpaceOnUse">
<stop stop-color="#F7DD43"/>
<stop offset="1" stop-color="#F7DD43" stop-opacity="0"/>
</linearGradient>
<linearGradient id="paint53_linear_122_130" x1="354.639" y1="13.6388" x2="354.639" y2="348.648" gradientUnits="userSpaceOnUse">
<stop stop-color="#F7DD43"/>
<stop offset="1" stop-color="#F7DD43" stop-opacity="0"/>
</linearGradient>
<linearGradient id="paint54_linear_122_130" x1="354.639" y1="13.6388" x2="354.639" y2="348.648" gradientUnits="userSpaceOnUse">
<stop stop-color="#F7DD43"/>
<stop offset="1" stop-color="#F7DD43" stop-opacity="0"/>
</linearGradient>
<linearGradient id="paint55_linear_122_130" x1="354.639" y1="13.6388" x2="354.639" y2="348.648" gradientUnits="userSpaceOnUse">
<stop stop-color="#F7DD43"/>
<stop offset="1" stop-color="#F7DD43" stop-opacity="0"/>
</linearGradient>
<linearGradient id="paint56_linear_122_130" x1="354.639" y1="13.6388" x2="354.639" y2="348.648" gradientUnits="userSpaceOnUse">
<stop stop-color="#F7DD43"/>
<stop offset="1" stop-color="#F7DD43" stop-opacity="0"/>
</linearGradient>
<linearGradient id="paint57_linear_122_130" x1="354.639" y1="13.6388" x2="354.639" y2="348.648" gradientUnits="userSpaceOnUse">
<stop stop-color="#F7DD43"/>
<stop offset="1" stop-color="#F7DD43" stop-opacity="0"/>
</linearGradient>
<linearGradient id="paint58_linear_122_130" x1="354.639" y1="13.6388" x2="354.639" y2="348.648" gradientUnits="userSpaceOnUse">
<stop stop-color="#F7DD43"/>
<stop offset="1" stop-color="#F7DD43" stop-opacity="0"/>
</linearGradient>
<linearGradient id="paint59_linear_122_130" x1="354.639" y1="13.6388" x2="354.639" y2="348.648" gradientUnits="userSpaceOnUse">
<stop stop-color="#F7DD43"/>
<stop offset="1" stop-color="#F7DD43" stop-opacity="0"/>
</linearGradient>
<linearGradient id="paint60_linear_122_130" x1="354.639" y1="13.6388" x2="354.639" y2="348.648" gradientUnits="userSpaceOnUse">
<stop stop-color="#F7DD43"/>
<stop offset="1" stop-color="#F7DD43" stop-opacity="0"/>
</linearGradient>
<linearGradient id="paint61_linear_122_130" x1="354.639" y1="13.6388" x2="354.639" y2="348.648" gradientUnits="userSpaceOnUse">
<stop stop-color="#F7DD43"/>
<stop offset="1" stop-color="#F7DD43" stop-opacity="0"/>
</linearGradient>
<linearGradient id="paint62_linear_122_130" x1="354.639" y1="13.6388" x2="354.639" y2="348.648" gradientUnits="userSpaceOnUse">
<stop stop-color="#F7DD43"/>
<stop offset="1" stop-color="#F7DD43" stop-opacity="0"/>
</linearGradient>
<linearGradient id="paint63_linear_122_130" x1="354.639" y1="13.6388" x2="354.639" y2="348.648" gradientUnits="userSpaceOnUse">
<stop stop-color="#F7DD43"/>
<stop offset="1" stop-color="#F7DD43" stop-opacity="0"/>
</linearGradient>
<linearGradient id="paint64_linear_122_130" x1="354.639" y1="13.6388" x2="354.639" y2="348.648" gradientUnits="userSpaceOnUse">
<stop stop-color="#F7DD43"/>
<stop offset="1" stop-color="#F7DD43" stop-opacity="0"/>
</linearGradient>
<linearGradient id="paint65_linear_122_130" x1="354.639" y1="13.6388" x2="354.639" y2="348.648" gradientUnits="userSpaceOnUse">
<stop stop-color="#F7DD43"/>
<stop offset="1" stop-color="#F7DD43" stop-opacity="0"/>
</linearGradient>
<linearGradient id="paint66_linear_122_130" x1="354.639" y1="13.6388" x2="354.639" y2="348.648" gradientUnits="userSpaceOnUse">
<stop stop-color="#F7DD43"/>
<stop offset="1" stop-color="#F7DD43" stop-opacity="0"/>
</linearGradient>
<linearGradient id="paint67_linear_122_130" x1="354.639" y1="13.6388" x2="354.639" y2="348.648" gradientUnits="userSpaceOnUse">
<stop stop-color="#F7DD43"/>
<stop offset="1" stop-color="#F7DD43" stop-opacity="0"/>
</linearGradient>
<linearGradient id="paint68_linear_122_130" x1="354.639" y1="13.6388" x2="354.639" y2="348.648" gradientUnits="userSpaceOnUse">
<stop stop-color="#F7DD43"/>
<stop offset="1" stop-color="#F7DD43" stop-opacity="0"/>
</linearGradient>
<linearGradient id="paint69_linear_122_130" x1="354.639" y1="13.6388" x2="354.639" y2="348.648" gradientUnits="userSpaceOnUse">
<stop stop-color="#F7DD43"/>
<stop offset="1" stop-color="#F7DD43" stop-opacity="0"/>
</linearGradient>
<linearGradient id="paint70_linear_122_130" x1="354.639" y1="13.6388" x2="354.639" y2="348.648" gradientUnits="userSpaceOnUse">
<stop stop-color="#F7DD43"/>
<stop offset="1" stop-color="#F7DD43" stop-opacity="0"/>
</linearGradient>
<linearGradient id="paint71_linear_122_130" x1="354.639" y1="13.6388" x2="354.639" y2="348.648" gradientUnits="userSpaceOnUse">
<stop stop-color="#F7DD43"/>
<stop offset="1" stop-color="#F7DD43" stop-opacity="0"/>
</linearGradient>
<linearGradient id="paint72_linear_122_130" x1="354.639" y1="13.6388" x2="354.639" y2="348.648" gradientUnits="userSpaceOnUse">
<stop stop-color="#F7DD43"/>
<stop offset="1" stop-color="#F7DD43" stop-opacity="0"/>
</linearGradient>
<linearGradient id="paint73_linear_122_130" x1="354.639" y1="13.6388" x2="354.639" y2="348.648" gradientUnits="userSpaceOnUse">
<stop stop-color="#F7DD43"/>
<stop offset="1" stop-color="#F7DD43" stop-opacity="0"/>
</linearGradient>
<linearGradient id="paint74_linear_122_130" x1="354.639" y1="13.6388" x2="354.639" y2="348.648" gradientUnits="userSpaceOnUse">
<stop stop-color="#F7DD43"/>
<stop offset="1" stop-color="#F7DD43" stop-opacity="0"/>
</linearGradient>
<linearGradient id="paint75_linear_122_130" x1="354.639" y1="13.6388" x2="354.639" y2="348.648" gradientUnits="userSpaceOnUse">
<stop stop-color="#F7DD43"/>
<stop offset="1" stop-color="#F7DD43" stop-opacity="0"/>
</linearGradient>
<linearGradient id="paint76_linear_122_130" x1="354.639" y1="13.6388" x2="354.639" y2="348.648" gradientUnits="userSpaceOnUse">
<stop stop-color="#F7DD43"/>
<stop offset="1" stop-color="#F7DD43" stop-opacity="0"/>
</linearGradient>
<linearGradient id="paint77_linear_122_130" x1="354.639" y1="13.6388" x2="354.639" y2="348.648" gradientUnits="userSpaceOnUse">
<stop stop-color="#F7DD43"/>
<stop offset="1" stop-color="#F7DD43" stop-opacity="0"/>
</linearGradient>
<linearGradient id="paint78_linear_122_130" x1="354.639" y1="13.6388" x2="354.639" y2="348.648" gradientUnits="userSpaceOnUse">
<stop stop-color="#F7DD43"/>
<stop offset="1" stop-color="#F7DD43" stop-opacity="0"/>
</linearGradient>
<linearGradient id="paint79_linear_122_130" x1="354.639" y1="13.6388" x2="354.639" y2="348.648" gradientUnits="userSpaceOnUse">
<stop stop-color="#F7DD43"/>
<stop offset="1" stop-color="#F7DD43" stop-opacity="0"/>
</linearGradient>
<linearGradient id="paint80_linear_122_130" x1="354.639" y1="13.6388" x2="354.639" y2="348.648" gradientUnits="userSpaceOnUse">
<stop stop-color="#F7DD43"/>
<stop offset="1" stop-color="#F7DD43" stop-opacity="0"/>
</linearGradient>
<linearGradient id="paint81_linear_122_130" x1="354.639" y1="13.6388" x2="354.639" y2="348.648" gradientUnits="userSpaceOnUse">
<stop stop-color="#F7DD43"/>
<stop offset="1" stop-color="#F7DD43" stop-opacity="0"/>
</linearGradient>
<linearGradient id="paint82_linear_122_130" x1="354.639" y1="13.6388" x2="354.639" y2="348.648" gradientUnits="userSpaceOnUse">
<stop stop-color="#F7DD43"/>
<stop offset="1" stop-color="#F7DD43" stop-opacity="0"/>
</linearGradient>
<linearGradient id="paint83_linear_122_130" x1="354.639" y1="13.6388" x2="354.639" y2="348.648" gradientUnits="userSpaceOnUse">
<stop stop-color="#F7DD43"/>
<stop offset="1" stop-color="#F7DD43" stop-opacity="0"/>
</linearGradient>
<linearGradient id="paint84_linear_122_130" x1="354.639" y1="13.6388" x2="354.639" y2="348.648" gradientUnits="userSpaceOnUse">
<stop stop-color="#F7DD43"/>
<stop offset="1" stop-color="#F7DD43" stop-opacity="0"/>
</linearGradient>
<linearGradient id="paint85_linear_122_130" x1="354.639" y1="13.6388" x2="354.639" y2="348.648" gradientUnits="userSpaceOnUse">
<stop stop-color="#F7DD43"/>
<stop offset="1" stop-color="#F7DD43" stop-opacity="0"/>
</linearGradient>
<linearGradient id="paint86_linear_122_130" x1="354.639" y1="13.6388" x2="354.639" y2="348.648" gradientUnits="userSpaceOnUse">
<stop stop-color="#F7DD43"/>
<stop offset="1" stop-color="#F7DD43" stop-opacity="0"/>
</linearGradient>
<linearGradient id="paint87_linear_122_130" x1="354.639" y1="13.6388" x2="354.639" y2="348.648" gradientUnits="userSpaceOnUse">
<stop stop-color="#F7DD43"/>
<stop offset="1" stop-color="#F7DD43" stop-opacity="0"/>
</linearGradient>
<linearGradient id="paint88_linear_122_130" x1="354.639" y1="13.6388" x2="354.639" y2="348.648" gradientUnits="userSpaceOnUse">
<stop stop-color="#F7DD43"/>
<stop offset="1" stop-color="#F7DD43" stop-opacity="0"/>
</linearGradient>
<linearGradient id="paint89_linear_122_130" x1="354.639" y1="13.6388" x2="354.639" y2="348.648" gradientUnits="userSpaceOnUse">
<stop stop-color="#F7DD43"/>
<stop offset="1" stop-color="#F7DD43" stop-opacity="0"/>
</linearGradient>
<linearGradient id="paint90_linear_122_130" x1="354.639" y1="13.6388" x2="354.639" y2="348.648" gradientUnits="userSpaceOnUse">
<stop stop-color="#F7DD43"/>
<stop offset="1" stop-color="#F7DD43" stop-opacity="0"/>
</linearGradient>
<linearGradient id="paint91_linear_122_130" x1="354.639" y1="13.6388" x2="354.639" y2="348.648" gradientUnits="userSpaceOnUse">
<stop stop-color="#F7DD43"/>
<stop offset="1" stop-color="#F7DD43" stop-opacity="0"/>
</linearGradient>
<linearGradient id="paint92_linear_122_130" x1="354.639" y1="13.6388" x2="354.639" y2="348.648" gradientUnits="userSpaceOnUse">
<stop stop-color="#F7DD43"/>
<stop offset="1" stop-color="#F7DD43" stop-opacity="0"/>
</linearGradient>
<linearGradient id="paint93_linear_122_130" x1="354.639" y1="13.6388" x2="354.639" y2="348.648" gradientUnits="userSpaceOnUse">
<stop stop-color="#F7DD43"/>
<stop offset="1" stop-color="#F7DD43" stop-opacity="0"/>
</linearGradient>
<clipPath id="clip0_122_130">
<rect width="488" height="766" fill="white"/>
</clipPath>
</defs>
</svg>




